<svg class="icon" viewBox="0 0 1024 1024" xmlns="http://www.w3.org/2000/svg" width="128" height="128"><defs><style/></defs><path d="M800 192H224c-17.7 0-32 14.3-32 32s14.3 32 32 32h576c17.7 0 32-14.3 32-32s-14.3-32-32-32zM534.7 297.4c-3-3-6.5-5.3-10.4-7-7.8-3.2-16.6-3.2-24.4 0-3.9 1.6-7.5 4-10.4 7l-256 256c-12.5 12.5-12.5 32.8 0 45.2s32.8 12.5 45.2 0L480 397.2V832c0 17.7 14.3 32 32 32s32-14.3 32-32V397.2l201.4 201.4c6.2 6.2 14.4 9.4 22.6 9.4s16.4-3.1 22.6-9.4c12.5-12.5 12.5-32.8 0-45.2l-255.9-256z" fill="#707070"/></svg>