<?xml version="1.0" encoding="utf-8"?>
<!-- Generator: Adobe Illustrator 21.1.0, SVG Export Plug-In . SVG Version: 6.00 Build 0)  -->
<svg version="1.1" id="图层_1" xmlns="http://www.w3.org/2000/svg" xmlns:xlink="http://www.w3.org/1999/xlink" x="0px" y="0px"
	 viewBox="0 0 896 938.6" style="enable-background:new 0 0 896 938.6;" xml:space="preserve">
<style type="text/css">
	.st0{fill:#C39143;}
</style>
<g id="组_5" transform="translate(-157.996 -198.687)">
	<g id="排除_1" transform="translate(-549 -295.314)">
		<path class="st0" d="M920.4,1432.1L920.4,1432.1c-4.9,0-9.7-0.8-14.2-2.4c-4.4-1.6-8.5-3.9-12.2-6.8c-3.7-2.9-6.8-6.4-9.3-10.4
			c-2.6-4.1-4.4-8.5-5.5-13.2l0,0l0,0L708.7,713c-1.4-5.5-1.6-11.1-0.7-16.7c0.9-5.6,2.8-10.9,5.8-15.7c3-4.8,6.8-8.9,11.4-12.2
			c4.6-3.3,9.7-5.6,15.3-6.8L877.8,631l0.4-0.1v-0.4l0-93.8c0-5.7,1.1-11.2,3.3-16.4c2.1-5,5.2-9.5,9-13.4c3.9-3.9,8.4-6.9,13.4-9
			c5.2-2.2,10.7-3.3,16.4-3.3h640c5.7,0,11.2,1.1,16.4,3.3c5,2.1,9.5,5.2,13.4,9c3.9,3.9,6.9,8.4,9,13.4c2.2,5.2,3.3,10.7,3.3,16.4
			V1390c0,5.7-1.1,11.2-3.3,16.4c-2.1,5-5.2,9.5-9,13.4c-3.9,3.9-8.4,6.9-13.4,9c-5.2,2.2-10.7,3.3-16.4,3.3l-639.5,0h0h0
			C920.7,1432.1,920.6,1432.1,920.4,1432.1z M977,583.8c-5.8,0-10.5,4.7-10.5,10.5v741c0,5.8,4.7,10.5,10.5,10.5h529
			c5.8,0,10.5-4.7,10.5-10.5v-741c0-5.8-4.7-10.5-10.5-10.5H977z M877.6,717.4l-76.1,17l-0.5,0.1l0.1,0.5l76.1,306.3l1-0.1l0-323.3
			l-0.1,0.2l-0.8-0.6L877.6,717.4z"/>
		<path class="st0" d="M920.4,1431.6c0.1,0,0.3,0,0.4,0l639.5,0c5.6,0,11.1-1.1,16.2-3.3c5-2.1,9.4-5.1,13.2-8.9
			c3.8-3.8,6.8-8.3,8.9-13.2c2.2-5.1,3.3-10.6,3.3-16.2V536.7c0-5.6-1.1-11.1-3.3-16.2c-2.1-5-5.1-9.4-8.9-13.2
			c-3.8-3.8-8.3-6.8-13.2-8.9c-5.1-2.2-10.6-3.3-16.2-3.3h-640c-5.6,0-11.1,1.1-16.2,3.3c-5,2.1-9.4,5.1-13.2,8.9
			c-3.8,3.8-6.8,8.3-8.9,13.2c-2.2,5.1-3.3,10.6-3.3,16.2l0,94.6l-0.8,0.2l-137.3,30.7c-5.5,1.2-10.5,3.5-15.1,6.7
			c-4.6,3.2-8.4,7.3-11.3,12c-2.9,4.7-4.9,10-5.7,15.5c-0.9,5.5-0.6,11.1,0.7,16.5l170.5,686.3c1.1,4.7,2.9,9.1,5.4,13.1
			c2.5,3.9,5.6,7.4,9.2,10.3c3.6,2.9,7.7,5.2,12,6.7C910.9,1430.8,915.5,1431.6,920.4,1431.6L920.4,1431.6 M977,583.3h529
			c6.1,0,11,4.9,11,11v741c0,6.1-4.9,11-11,11H977c-6.1,0-11-4.9-11-11v-741C966,588.2,970.9,583.3,977,583.3 M877.5,716.9l0.2,0.7
			l0.3,0.2h0.7l0,323.3l-2,0.2l-76.3-307.3l1-0.2L877.5,716.9 M920.3,1432.6L920.3,1432.6c-4.9,0-9.7-0.8-14.3-2.5
			c-4.5-1.6-8.6-3.9-12.3-6.9c-3.7-3-6.9-6.5-9.4-10.5c-2.6-4.1-4.5-8.6-5.6-13.4L708.3,713.1c-1.4-5.6-1.6-11.2-0.7-16.9
			c0.9-5.7,2.9-11,5.9-15.8c3-4.9,6.9-9,11.6-12.3c4.7-3.3,9.9-5.6,15.4-6.9l137.3-30.7l0-93.8c0-5.8,1.1-11.3,3.4-16.6
			c2.1-5.1,5.2-9.6,9.1-13.6c3.9-3.9,8.5-7,13.6-9.1c5.3-2.2,10.8-3.4,16.6-3.4h640c5.8,0,11.3,1.1,16.6,3.4
			c5.1,2.1,9.6,5.2,13.6,9.1c3.9,3.9,7,8.5,9.1,13.6c2.2,5.3,3.4,10.8,3.4,16.6V1390c0,5.8-1.1,11.3-3.4,16.6
			c-2.1,5.1-5.2,9.6-9.1,13.6c-3.9,3.9-8.5,7-13.6,9.1c-5.3,2.2-10.8,3.4-16.6,3.4l-639.5,0C920.7,1432.6,920.5,1432.6,920.3,1432.6
			z M977,584.3c-5.5,0-10,4.5-10,10v741c0,5.5,4.5,10,10,10h529c5.5,0,10-4.5,10-10v-741c0-5.5-4.5-10-10-10H977z M877.7,717.9
			L877.7,717.9l-76.1,17l76.1,306.3L877.7,717.9z"/>
	</g>
	<path id="多边形_2" class="st0" d="M688.1,483.2c1.3-2.4,4.4-3.3,6.8-1.9c0.8,0.5,1.5,1.1,1.9,1.9l161.6,289.9
		c1.3,2.4,0.5,5.5-1.9,6.8c-0.7,0.4-1.6,0.6-2.4,0.6H530.9c-2.8,0-5-2.2-5-5c0-0.9,0.2-1.7,0.6-2.4L688.1,483.2z"/>
</g>
</svg>
