<svg xmlns="http://www.w3.org/2000/svg" width="887.808" height="827.392" viewBox="0 0 887.808 827.392">
  <g id="icon-gamedelete" transform="translate(-68.608 -98.816)">
    <path id="路径_1" data-name="路径 1" d="M333.824,837.632c-100.352-15.36-175.616-67.584-175.616-121.856v-51.2c34.816,24.064,78.336,42.5,129.024,54.272a62.729,62.729,0,0,0,9.728,1.024,44.629,44.629,0,0,0,10.24-88.064c-83.456-18.944-143.36-62.976-148.992-109.056v-7.68a24.928,24.928,0,0,0-.512-6.144V463.872c34.816,24.064,78.848,43.008,129.536,54.272a62.729,62.729,0,0,0,9.728,1.024c20.48,0,38.912-14.336,43.008-34.816a44.157,44.157,0,0,0-33.28-53.248C223.232,412.16,163.328,368.128,157.7,322.048v-7.68a14.175,14.175,0,0,0-.512-4.608C162.3,251.392,259.072,187.9,396.288,187.9c102.4,0,196.1,37.376,228.864,91.136a44.343,44.343,0,0,0,75.776-46.08c-49.152-81.408-168.96-134.144-304.64-134.144-183.808,0-327.68,94.72-327.68,215.552v200.7a90.634,90.634,0,0,0,.512,11.776V715.776C69.12,816.64,172.032,903.168,320,925.7a29.193,29.193,0,0,0,6.656.512c21.5,0,40.448-15.872,44.544-37.888,3.584-24.064-13.312-47.1-37.376-50.688Z" fill="#e9f1f6"/>
    <path id="路径_2" data-name="路径 2" d="M822.784,342.528H514.56A133.728,133.728,0,0,0,380.928,476.16V791.04A133.728,133.728,0,0,0,514.56,924.672H822.784A133.728,133.728,0,0,0,956.416,791.04V476.16A133.728,133.728,0,0,0,822.784,342.528ZM866.816,791.04a44.362,44.362,0,0,1-44.032,44.032H514.56a44.362,44.362,0,0,1-44.032-44.032V476.16a44.362,44.362,0,0,1,44.032-44.032H822.784a44.362,44.362,0,0,1,44.032,44.032Z" fill="#e9f1f6"/>
    <path id="路径_3" data-name="路径 3" d="M793.6,589.312H543.744a44.544,44.544,0,0,0,0,89.088H793.6a44.544,44.544,0,0,0,0-89.088Z" transform="translate(-252.354 658.475) rotate(-45)" fill="#e9f1f6"/>
    <path id="路径_4" data-name="路径 4" d="M793.6,589.312H543.744a44.544,44.544,0,0,0,0,89.088H793.6a44.544,44.544,0,0,0,0-89.088Z" transform="translate(644.053 -287.17) rotate(45)" fill="#e9f1f6"/>
  </g>
</svg>
