<?xml version="1.0" standalone="no"?><!DOCTYPE svg PUBLIC "-//W3C//DTD SVG 1.1//EN" "http://www.w3.org/Graphics/SVG/1.1/DTD/svg11.dtd"><svg t="1744961613778" class="icon" viewBox="0 0 1024 1024" version="1.1" xmlns="http://www.w3.org/2000/svg" p-id="9479" xmlns:xlink="http://www.w3.org/1999/xlink" width="200" height="200"><path d="M512 512m-512 0a512 512 0 1 0 1024 0 512 512 0 1 0-1024 0Z" fill="#37BF6E" opacity=".07" p-id="9480"></path><path d="M311.28 417.66m20 0l468.58 0q20 0 20 20l0 83.02q0 20-20 20l-468.58 0q-20 0-20-20l0-83.02q0-20 20-20Z" fill="#37BF6E" p-id="9481"></path><path d="M252.097001 223.359419m14.142136-14.142135l58.704005-58.704005q14.142136-14.142136 28.284271 0l231.959308 231.959308q14.142136 14.142136 0 28.284271l-58.704005 58.704005q-14.142136 14.142136-28.284271 0l-231.959308-231.959308q-14.142136-14.142136 0-28.284271Z" fill="#37BF6E" p-id="9482"></path><path d="M425.305591 396.77476m14.142136-14.142135l231.040069-231.04007q14.142136-14.142136 28.284271 0l58.704005 58.704005q14.142136 14.142136 0 28.284271l-231.040069 231.04007q-14.142136 14.142136-28.284271 0l-58.704005-58.704005q-14.142136-14.142136 0-28.284271Z" fill="#37BF6E" p-id="9483"></path><path d="M204.14 627.8m20 0l454.46 0q20 0 20 20l0 83.02q0 20-20 20l-454.46 0q-20 0-20-20l0-83.02q0-20 20-20Z" fill="#37BF6E" p-id="9484"></path><path d="M450.24 417.66m20 0l83.02 0q20 0 20 20l0 421.7q0 20-20 20l-83.02 0q-20 0-20-20l0-421.7q0-20 20-20Z" fill="#37BF6E" p-id="9485"></path><path d="M333.44 587.72L214 489.16a16 16 0 0 1 0.4-25l122.38-94.56a16 16 0 0 1 25.78 12.9l-2.84 193.12a16 16 0 0 1-26.28 12.1zM693.06 804.52L812.6 706a16 16 0 0 0-0.38-25l-122.38-94.6a16 16 0 0 0-25.84 12.9l2.82 193.12a16 16 0 0 0 26.24 12.1z" fill="#37BF6E" p-id="9486"></path></svg>