<svg xmlns="http://www.w3.org/2000/svg" width="752.102" height="850" viewBox="0 0 752.102 850">
  <path id="icon-lended" d="M759,335C759,198,648,87,511,87S263,198,263,335A247.61,247.61,0,0,0,366,536.2c-.4.2-.7.3-.9.4A375.775,375.775,0,0,0,136,874.8a8,8,0,0,0,8,8.2h59.9a8.05,8.05,0,0,0,8-7.8A299.761,299.761,0,0,1,511,583C648,583,759,472,759,335ZM511,507A172,172,0,1,1,683,335,171.991,171.991,0,0,1,511,507ZM616,728H880a8.023,8.023,0,0,0,8-8V664a8.023,8.023,0,0,0-8-8H703.5l47.2-60.1a7.977,7.977,0,0,0-6.3-12.9H671.8a16.324,16.324,0,0,0-12.6,6.1l-68.5,87.1A32.058,32.058,0,0,0,616,728Zm240,64H592a8.023,8.023,0,0,0-8,8v56a8.023,8.023,0,0,0,8,8H768.5l-47.2,60.1a7.977,7.977,0,0,0,6.3,12.9h72.6a16.324,16.324,0,0,0,12.6-6.1l68.5-87.1A32.058,32.058,0,0,0,856,792Z" transform="translate(-135.998 -87)" fill="#e9f1f6"/>
</svg>
