<?xml version="1.0" standalone="no"?><!DOCTYPE svg PUBLIC "-//W3C//DTD SVG 1.1//EN" "http://www.w3.org/Graphics/SVG/1.1/DTD/svg11.dtd"><svg t="1733970971659" class="icon" viewBox="0 0 1024 1024" version="1.1" xmlns="http://www.w3.org/2000/svg" p-id="8423" id="mx_n_1733970971660" xmlns:xlink="http://www.w3.org/1999/xlink" width="200" height="200"><path d="M71.541492 352.080994m4.985128-1.537436l663.279817-204.558506q4.985128-1.537436 6.522564 3.447692l204.558506 663.279817q1.537436 4.985128-3.447692 6.522564l-663.279817 204.558506q-4.985128 1.537436-6.522564-3.447692l-204.558506-663.279817q-1.537436-4.985128 3.447692-6.522564Z" fill="#EBA05E" p-id="8424"></path><path d="M553.355502 848.003012c-107.780006 0-245.53745-104.901761-296.292222-274.024369a13.549597 13.549597 0 0 1 25.955605-7.786681c56.92244 189.809996 213.889601 274.19141 301.174959 250.857064 42.40272-11.230296 84.098729-50.831867 111.621949-105.916856 45.602198-91.230095 46.977075-204.740893 3.854793-311.364461a13.549597 13.549597 0 0 1 25.120399-10.163804c46.116171 113.806332 44.407213 235.425044-4.65145 333.645163-31.416561 62.858821-78.380786 106.649267-128.929968 119.999699a147.934097 147.934097 0 0 1-37.854065 4.754245z" fill="#FFFFFF" p-id="8425"></path><path d="M709.868041 159.065951a40.655214 81.310429 12.91 1 0 36.332791-158.510163 40.655214 81.310429 12.91 1 0-36.332791 158.510163Z" fill="#EBA05E" p-id="8426"></path><path d="M804.086089 222.704438a40.655214 81.310429 42.8 1 0 110.491327-119.31978 40.655214 81.310429 42.8 1 0-110.491327 119.31978Z" fill="#EBA05E" p-id="8427"></path></svg>