<?xml version="1.0" encoding="utf-8"?>
<!-- Generator: Adobe Illustrator 21.1.0, SVG Export Plug-In . SVG Version: 6.00 Build 0)  -->
<svg version="1.1" id="图层_1" xmlns="http://www.w3.org/2000/svg" xmlns:xlink="http://www.w3.org/1999/xlink" x="0px" y="0px"
	 viewBox="0 0 896 938.6" style="enable-background:new 0 0 896 938.6;" xml:space="preserve">
<style type="text/css">
	.st0{fill:#C39143;}
	.st1{fill:#FFFFFF;}
</style>
<g id="组_4" transform="translate(-160 -240.686)">
	<path id="poker" class="st0" d="M373.4,240.7c-23.6,0-42.7,19.1-42.7,42.7v93.8l-137.3,30.7c-23,5.1-37.5,27.9-32.4,50.9
		c0.1,0.3,0.2,0.7,0.2,1l170.5,686.2c4.4,19.6,22,33.5,42.2,33.2h639.5c23.6,0,42.7-19.1,42.7-42.7V283.4
		c0-23.6-19.1-42.7-42.7-42.7H373.4z M330.7,464.6v323.3l-76.1-306.3L330.7,464.6z"/>
	<path id="多边形_2" class="st1" d="M697.5,872.8c-1.3,2.4-4.4,3.3-6.8,1.9c-0.8-0.5-1.5-1.1-1.9-1.9L527.1,582.8
		c-1.3-2.4-0.5-5.5,1.9-6.8c0.7-0.4,1.6-0.6,2.4-0.6h323.2c2.8,0,5,2.2,5,5c0,0.9-0.2,1.7-0.6,2.4L697.5,872.8z"/>
</g>
</svg>
