<?xml version="1.0" encoding="utf-8"?>
<!-- Generator: Adobe Illustrator 21.1.0, SVG Export Plug-In . SVG Version: 6.00 Build 0)  -->
<svg version="1.1" id="图层_1" xmlns="http://www.w3.org/2000/svg" xmlns:xlink="http://www.w3.org/1999/xlink" x="0px" y="0px"
	 viewBox="0 0 200 200" style="enable-background:new 0 0 200 200;" xml:space="preserve">
<style type="text/css">
	.st0{fill:#99FF33;}
</style>
<path class="st0" d="M106.6,93.1V47c-0.1-10,3-19.8,9-27.9c6.1-8.6,15-14.7,25.2-17.3c15.8-4.6,32.8-0.4,44.6,11.1
	c7.1,6.5,11.8,15.1,13.5,24.5c2.4,12.4-0.3,25.3-7.5,35.7c-7.3,10.4-18.5,17.3-31,19.2c-2.7,0.4-5.3,0.7-8,0.7H106.6L106.6,93.1z
	 M93,93.1H47.2c-25.7,0.3-46.8-20.3-47.1-46C0,33.5,5.8,20.4,16.1,11.5c19.6-16.7,49-14.3,65.7,5.3c5.6,6.6,9.2,14.6,10.6,23.1
	c0.4,2.4,0.6,4.8,0.7,7.2V93.1z M93,106.7v45.9c0.2,11.7-4.1,23-12,31.6c-6.8,7.9-16.2,13.1-26.5,14.7c-15.2,2.9-30.9-2.3-41.4-13.6
	C6.9,178.9,2.7,171,1,162.3c-3.1-14,0.7-28.6,10.1-39.3c7-8.2,16.6-13.6,27.2-15.5c3-0.6,6-0.8,9-0.8h45.4L93,106.7z M106.6,107.2
	h46.2c9.2-0.2,18.2,2.4,25.9,7.5c9.5,5.9,16.3,15.3,19.1,26.1c6.7,24.9-8,50.5-32.9,57.2c0,0-0.1,0-0.1,0c-5,1.4-10.2,1.9-15.4,1.3
	c-16.7-1.3-31.4-11.5-38.3-26.7c-2.3-4.7-3.8-9.8-4.2-15.1v-50.4L106.6,107.2z"/>
</svg>
