<svg xmlns="http://www.w3.org/2000/svg" width="1236.324" height="721.117" viewBox="0 0 1236.324 721.117">
  <g id="组_1" data-name="组 1" transform="translate(-29 -195.701)">
    <g id="icon-switch" transform="translate(-16.435 150.517)">
      <path id="路径_8" data-name="路径 8" d="M705.121,45.184H593.366a4.768,4.768,0,0,0-4.705,4.705V761.2a5.19,5.19,0,0,0,5.1,5.1H704.73c101.954,0,184.69-82.738,184.69-184.69V230.266a184.254,184.254,0,0,0-184.3-185.082Zm26.665,469.763a72.935,72.935,0,1,1,72.935-72.935C804.721,482.009,771.782,514.947,731.786,514.947Z" transform="translate(-123.652)" fill="#d9333f"/>
      <path id="路径_9" data-name="路径 9" d="M258.473,305.434m-67.837,0A67.837,67.837,0,1,0,258.473,237.6a67.837,67.837,0,0,0-67.837,67.838Z" transform="translate(-33.051 -43.798)" fill="#d9333f"/>
      <path id="路径_10" data-name="路径 10" d="M388.153,45.184H230.125c-101.954,0-184.69,82.738-184.69,185.082V581.611c0,101.954,82.738,184.69,184.69,184.69H388.153a5.19,5.19,0,0,0,5.1-5.1V50.282a5.19,5.19,0,0,0-5.1-5.1ZM334.824,708.268h-104.7c-69.8,0-127.048-56.858-127.048-126.263V230.658A127.024,127.024,0,0,1,230.157,103.61H334.824Z" fill="#d9333f"/>
    </g>
    <path id="路径_1" data-name="路径 1" d="M209.473-127.93H506.348V0H40.527V-52.734q0-53.711,18.066-96.436A320.016,320.016,0,0,1,104-225.83a393.891,393.891,0,0,1,59.814-60.059q32.471-26.123,61.768-47.119Q256.348-354.98,279.541-375A307.456,307.456,0,0,0,318.6-414.795q15.869-19.775,23.682-40.039a119.077,119.077,0,0,0,7.813-43.213q0-44.922-25.391-67.871T247.07-588.867q-90.332,0-172.852,71.777V-652.832q91.309-59.082,206.055-59.082,53.223,0,95.459,13.916T447.266-658.2a169.726,169.726,0,0,1,44.678,62.744q15.381,36.865,15.381,82.275,0,48.34-14.893,85.938a264.069,264.069,0,0,1-39.551,68.359A358.763,358.763,0,0,1,396-302.49Q363.77-276.855,329.1-252.93q-23.437,16.6-45.166,32.959a428.188,428.188,0,0,0-38.33,32.227q-16.6,15.869-26.367,31.006T209.473-127.93Z" transform="translate(758 914)" fill="#d9333f"/>
  </g>
</svg>
