<svg xmlns="http://www.w3.org/2000/svg" width="932.622" height="933.635" viewBox="0 0 932.622 933.635">
  <g id="icon-switch" transform="translate(-45.435 -45.184)">
    <path id="路径_8" data-name="路径 8" d="M739.443,45.184H594.753a6.173,6.173,0,0,0-6.092,6.092v920.94a6.72,6.72,0,0,0,6.6,6.6H738.936c132,0,239.119-107.121,239.119-239.119V284.811c.508-132.506-106.614-239.627-238.612-239.627ZM773.966,653.39a94.429,94.429,0,1,1,94.429-94.429C868.4,610.744,825.749,653.39,773.966,653.39Z" fill="#d9333f"/>
    <path id="路径_9" data-name="路径 9" d="M278.465,325.426m-87.829,0a87.829,87.829,0,1,0,87.829-87.83,87.829,87.829,0,0,0-87.829,87.83Z" fill="#3885ec"/>
    <path id="路径_10" data-name="路径 10" d="M489.154,45.184h-204.6c-132,0-239.119,107.121-239.119,239.627V739.7c0,132,107.121,239.119,239.119,239.119h204.6a6.72,6.72,0,0,0,6.6-6.6V51.784a6.72,6.72,0,0,0-6.6-6.6Zm-69.045,858.5H284.557c-90.368,0-164.49-73.614-164.49-163.474V285.319A164.459,164.459,0,0,1,284.6,120.829H420.109Z" fill="#3885ec"/>
  </g>
</svg>
