<?xml version="1.0" standalone="no"?><!DOCTYPE svg PUBLIC "-//W3C//DTD SVG 1.1//EN" "http://www.w3.org/Graphics/SVG/1.1/DTD/svg11.dtd"><svg t="1735267809868" class="icon" viewBox="0 0 1024 1024" version="1.1" xmlns="http://www.w3.org/2000/svg" p-id="4227" xmlns:xlink="http://www.w3.org/1999/xlink" width="200" height="200"><path d="M407.568 154.019c-11.952-11.925-26.904-17.894-41.853-17.894-5.972 0-11.952 2.984-17.929 2.984h-2.992c-8.964 5.961-14.94 11.941-20.921 17.902L81.77 398.634c-23.912 23.862-23.912 59.669 0 80.551 11.956 11.929 26.901 17.894 41.841 17.894 14.948 0 29.896-5.965 41.845-17.894l146.459-146.177v495.198c0 32.815 26.908 56.677 56.797 56.677 29.892 0 56.789-26.854 56.789-56.677V198.775c-0.001-14.925-5.973-32.819-17.933-44.756zM942.59 541.831c-11.956-11.941-26.904-17.905-41.849-17.905-14.944 0-29.889 5.965-41.845 17.905L709.45 690.977V195.791c0-32.819-26.901-56.681-56.785-56.681-29.892 0-56.797 26.85-56.797 56.681v635.391c0 32.811 26.904 56.693 56.797 56.693 14.944 0 29.885-5.98 41.841-17.905l245.097-244.615c26.896-23.859 26.896-59.658 2.987-83.524z" fill="#2c2c2c" p-id="4228"></path></svg>