<svg xmlns="http://www.w3.org/2000/svg" width="62" height="17" viewBox="0 0 62 17">
  <g id="组_11" data-name="组 11" transform="translate(-198 -444)">
    <rect id="矩形_26" data-name="矩形 26" width="62" height="17" rx="8.5" transform="translate(198 444)" fill="#c97a12"/>
    <g id="组_10" data-name="组 10" transform="translate(1 33.895)">
      <path id="games" d="M43.989,49.95l-1.2,1.2a.428.428,0,1,0,.606.606l1.2-1.2,1.2,1.2a.428.428,0,1,0,.606-.606l-1.2-1.2,1.2-1.2a.428.428,0,1,0-.606-.606l-1.2,1.2-1.2-1.2a.428.428,0,1,0-.606.606Zm5.962-3a2.142,2.142,0,1,1,2.142-2.142A2.142,2.142,0,0,1,49.951,46.951Zm0-.857a1.285,1.285,0,1,0-1.285-1.285A1.285,1.285,0,0,0,49.951,46.094Zm-2.142,2.787a1.072,1.072,0,0,1,1.073-1.073H51.02a1.072,1.072,0,0,1,1.073,1.073v2.138a1.072,1.072,0,0,1-1.073,1.073H48.882a1.072,1.072,0,0,1-1.073-1.073V48.881Zm.857,0v2.138a.215.215,0,0,0,.216.216H51.02a.215.215,0,0,0,.216-.216V48.881a.215.215,0,0,0-.216-.216H48.882A.215.215,0,0,0,48.665,48.881Zm-4.581-5.54a.8.8,0,0,1,1.45,0L46.8,45.487a.777.777,0,0,1-.671,1.25H43.488a.776.776,0,0,1-.671-1.25l1.267-2.145Zm-.5,2.538h2.458L44.81,43.8Z" transform="translate(160.508 371.225)" fill="#fff"/>
      <text id="游戏本体" transform="translate(215 421.105)" fill="#fff" font-size="9" font-family="lianmengqiyilushuaizhengruiheiti-Regular, lianmengqiyilushuaizhengruiheiti"><tspan x="0" y="0">游戏本体</tspan></text>
    </g>
  </g>
</svg>
