<?xml version="1.0" standalone="no"?><!DOCTYPE svg PUBLIC "-//W3C//DTD SVG 1.1//EN" "http://www.w3.org/Graphics/SVG/1.1/DTD/svg11.dtd"><svg t="1749441889685" class="icon" viewBox="0 0 1024 1024" version="1.1" xmlns="http://www.w3.org/2000/svg" p-id="4086" xmlns:xlink="http://www.w3.org/1999/xlink" width="200" height="200"><path d="M256 42.666667a42.666667 42.666667 0 0 0-42.666667 42.666666v93.824l-137.301333 30.72a42.666667 42.666667 0 0 0-32.128 51.925334L214.357333 948.053333a42.666667 42.666667 0 0 0 42.154667 33.237334H896a42.666667 42.666667 0 0 0 42.666667-42.666667V85.333333a42.666667 42.666667 0 0 0-42.666667-42.666666H256zM213.333333 266.581333v323.285334L137.258667 283.605333 213.333333 266.581333zM384 170.666667a42.666667 42.666667 0 0 1 42.666667 42.666666v85.333334a42.666667 42.666667 0 0 1-85.333334 0V213.333333a42.666667 42.666667 0 0 1 42.666667-42.666666z m224.768 186.026666l106.666667 128a42.666667 42.666667 0 0 1 0 54.613334l-106.666667 128a42.666667 42.666667 0 0 1-65.536 0l-106.666667-128a42.666667 42.666667 0 0 1 0-54.613334l106.666667-128a42.666667 42.666667 0 0 1 65.536 0zM810.666667 725.333333v85.333334a42.666667 42.666667 0 1 1-85.333334 0v-85.333334a42.666667 42.666667 0 1 1 85.333334 0z" fill="#000000" fill-opacity=".85" p-id="4087"></path></svg>